<?xml version="1.0" encoding="UTF-8" standalone="no"?>
<svg
   height="1408"
   viewBox="0 0 1792 1408"
   width="1792"
   version="1.1"
   id="svg12"
   sodipodi:docname="envelope_icon.svg"
   xmlns:inkscape="http://www.inkscape.org/namespaces/inkscape"
   xmlns:sodipodi="http://sodipodi.sourceforge.net/DTD/sodipodi-0.dtd"
   xmlns="http://www.w3.org/2000/svg"
   xmlns:svg="http://www.w3.org/2000/svg">
  <defs
     id="defs16" />
  <sodipodi:namedview
     id="namedview14"
     pagecolor="#ffffff"
     bordercolor="#000000"
     borderopacity="0.25"
     inkscape:showpageshadow="2"
     inkscape:pageopacity="0.0"
     inkscape:pagecheckerboard="0"
     inkscape:deskcolor="#d1d1d1"
     showgrid="false" />
  <path
     d="m 25,6.33371 v 11.077 q 0,0.92076 -0.655691,1.57645 -0.655693,0.6557 -1.576452,0.6557 H 2.2321429 q -0.920759,0 -1.57645094,-0.6557 Q 0,18.33147 0,17.41071 v -11.077 q 0.61383929,0.68359 1.4090401,1.21373 5.0502236,3.43191 6.9335942,4.81305 0.7952,0.58594 1.2904571,0.91378 0.4952576,0.32785 1.3183596,0.66964 0.823103,0.3418 1.534598,0.3418 h 0.0279 q 0.711497,0 1.534599,-0.3418 0.823102,-0.34179 1.318359,-0.66964 0.495257,-0.32784 1.290458,-0.91378 2.371651,-1.71596 6.947544,-4.81305 0.795202,-0.5441 1.39509,-1.21373 z m 0,-4.10157 q 0,1.10212 -0.683594,2.10659 -0.683594,1.00446 -1.702009,1.71596 -5.245536,3.64118 -6.529017,4.53404 -0.13951,0.0977 -0.592914,0.42551 -0.453404,0.32784 -0.753347,0.53012 -0.299945,0.20229 -0.725447,0.45341 -0.425503,0.25111 -0.802177,0.37667 Q 12.834821,12.5 12.513951,12.5 h -0.0279 q -0.320871,0 -0.697545,-0.12556 -0.376674,-0.12556 -0.802177,-0.37668 -0.425502,-0.25111 -0.725446,-0.4534 Q 9.9609393,11.34208 9.507535,11.01423 9.0541307,10.68639 8.9146221,10.58873 7.64509,9.69587 5.2594881,8.04269 2.8738839,6.38951 2.3995536,6.05469 1.5345982,5.46875 0.76729907,4.44336 0,3.41797 0,2.53906 0,1.45089 0.57896206,0.72544 1.1579241,0 2.2321429,0 H 22.767857 Q 23.674666,0 24.337333,0.65569 25,1.31139 25,2.23214 Z"
     id="path10"
     inkscape:export-filename="envelope_icon.svg"
     inkscape:export-xdpi="2.4642856"
     inkscape:export-ydpi="2.4642856"
     style="stroke-width:0.0139509" />
</svg>
